<svg id="Layer_1" data-name="Layer 1" xmlns="http://www.w3.org/2000/svg" viewBox="0 0 352 360"><defs><style>.cls-1{fill:#fff;}</style></defs><title>google_icon</title><path class="cls-1" d="M25.15,103.22A155.81,155.81,0,0,1,46.38,70.58q40-47.71,101.16-59.85a160.68,160.68,0,0,1,34.37-3.12c29.38.61,57.15,7.43,82.75,22.25a172.51,172.51,0,0,1,29.39,21.51c1.12,1,1.4,1.53.17,2.76q-23.1,23-46.06,46.05c-1,1-1.51,1-2.53,0a92.65,92.65,0,0,0-43.34-22.67,4.31,4.31,0,0,1-.77-.32c-.52-1-1.59-.41-2.37-.75a11.81,11.81,0,0,0-2.91-.51A96.49,96.49,0,0,0,176,74.65a120.7,120.7,0,0,0-17,2.16.33.33,0,0,0-.29.44A118,118,0,0,0,138.5,84c-27.07,12.69-45.67,33.16-56.13,61.11-.22.59-.5,1.17-.75,1.75-1.08.22-1.71-.57-2.41-1.12q-22.32-17.35-44.68-34.65c-2.7-2.09-5.37-4.22-8.09-6.28A2.7,2.7,0,0,1,25.15,103.22Z"/><path class="cls-1" d="M81.58,214.78A119.53,119.53,0,0,0,91.05,235c16.66,27.06,40.25,44.62,71.75,50,27,4.56,52.7.06,76.11-14.91.24-.15.51-.26.76-.39,1.5,0,2.41,1.16,3.45,2,14.41,11.27,28.91,22.42,43.34,33.67,2,1.57,4.08,3.09,6.08,4.69.73.58,1.8,1,1.83,2.17A135.3,135.3,0,0,1,267.47,332c-22.24,12.72-46.31,19.28-71.76,21.37-26.81,2.19-52.86-1.06-77.91-10.87-41-16.05-71.7-43.83-92.17-82.85a11.24,11.24,0,0,1-.49-1.18c.92-2,2.93-2.84,4.52-4.07L79.21,215.9C79.89,215.37,80.49,214.51,81.58,214.78Z"/><path class="cls-1" d="M294.37,312.17l-54.7-42.5a82.77,82.77,0,0,0,26.79-30.15,84.85,84.85,0,0,0,7.67-22.08c.13-.66.23-1.27-.41-1.73a7.6,7.6,0,0,0-2.13-.09h-88c-3.32,0-3.32,0-3.32-3.29v-60c0-3.33,0-3.34,3.29-3.34H339.27c2.9,0,2.86,0,3.52,2.81.2.84.21,1.69.4,2.52.06.28,0-.09.11.18s.16.11.24-.09a111.26,111.26,0,0,1,1.95,15.84,196.51,196.51,0,0,1-6.78,68.63c-7.84,27.75-21.74,52-42.72,72C295.48,311.28,294.91,311.71,294.37,312.17Z"/><path class="cls-1" d="M81.58,214.78q-27.11,21-54.22,42c-.72.57-1.48,1.1-2.22,1.65a142.87,142.87,0,0,1-10.26-24.77,171.12,171.12,0,0,1-7.76-39.85c-2.4-31.6,3.66-61.52,17.55-89.92a5.33,5.33,0,0,1,.48-.69l54.56,42.32c.62.48,1.27.9,1.91,1.36a126.18,126.18,0,0,0-4.86,22,104.32,104.32,0,0,0,4.36,44C81.31,213.54,81.42,214.16,81.58,214.78Z"/><path class="cls-1" d="M343.54,154.38l-.2,2.25a32.93,32.93,0,0,1-1-5.14c0-1.86-.83-2.14-2.48-2.14q-78.37.06-156.74,0c-2,0-2.45.65-2.45,2.54q.1,30.44,0,60.86c0,2,.54,2.49,2.5,2.49q44.31-.09,88.62,0c.68,0,1.37.1,2.05.16a.42.42,0,0,1,0,.18.71.71,0,0,1-.12.18c-.78.07-1.55.19-2.33.19q-44.41,0-88.84,0c-2.1,0-2.76-.42-2.75-2.67q.15-31.29,0-62.57c0-1.76.43-2.27,2.23-2.26q79.33.06,158.69,0c1.7,0,2.27.6,2.36,2.14C343.17,151.85,343.39,153.11,343.54,154.38Z"/></svg>