<svg id="Layer_1" data-name="Layer 1" xmlns="http://www.w3.org/2000/svg" viewBox="0 0 352 360"><defs><style>.cls-1{fill:#ffff01;}.cls-2{fill:#010002;}.cls-3{fill:#fff;}</style></defs><title>profile_img</title><rect class="cls-1" width="352" height="360"/><path class="cls-2" d="M81.72,17c13.11,3.44,19,12.49,21.54,25.38,8.1,41.69,21.26,81.72,40.6,119.65,1.86,3.65,3.31,4.61,7.41,3.36a56.7,56.7,0,0,1,64.53,24c1.52,2.4,3,4.18,6.06,4.88,5.89,1.37,10,5.82,14.86,10.21.65-9.81,4.79-17.06,12.28-22.1s16-7.19,25.18-5.39c12.14,2.38,18.95,10.16,22,21.74,5,18.83,7,38.13,9.21,57.4,1,8.57,2.25,17.14,2.5,25.74.47,16.41-9.93,29.67-24.94,32.46-10.09,1.87-18.43-2.1-25.86-8.44-9-7.65-17.8-15.42-26.69-23.13-1.17-1-2.39-2-4.89-4,0,4.24.07,7.28,0,10.33q-.87,37.67-4.72,75.15a19,19,0,0,1-1.14,5.75c-7.45,16.84-1.78,33.95-.69,50.81,2.27,35.42,5.58,70.78,8.83,106.12,1.67,18.15,4.4,36.2,6.17,54.35,2,20.5-14.34,37.27-35.08,36.56-12.42-.43-21-8.27-22.95-21.7-3.26-23.1-6.21-46.24-8.25-69.49q-4.77-54.21-9.38-108.44c-.59-7-6.74-3.47-10.05-5.28s-3,2.07-3.55,3.78c-10.85,36.3-17.93,73.37-23,110.88-2.88,21.2-4.37,42.52-6.89,63.74C112.31,612.3,92,625,72,618.15c-10.81-3.68-17.55-12.47-17.29-23.94.45-19.23,2.82-38.33,5-57.41,4.81-41.88,11.79-83.39,23.11-124.07,6.29-22.62,13.67-44.86,23.25-66.35C109,340,108,332.81,108.33,326c1.8-32.12,4-64.24,1.88-96.45a18.22,18.22,0,0,0-2.6-8.8C76.27,169.87,56,114.71,44.5,56.19,40.94,38.06,51.68,21.72,69.74,18c.9-.19,2,.06,2.56-1Z"/><path class="cls-2" d="M202,164.13c-29.32-.24-53.6-24.86-53.1-53.84.51-29.19,24.88-53.26,53.53-52.88,29.14.38,53,24.34,53.15,53.3S231,164.36,202,164.13Z"/><path class="cls-3" d="M133.63,238.55l0-.58L134.76,213c0-.58,0-.58.58-.55l14.22.63.5,0c0,.18,0,.33,0,.47q-.47,10.74-.95,21.49c0,.29,0,.46-.41.52-4.69.75-9.36,1.63-14,2.7Z"/><path class="cls-3" d="M158.42,234.17l0-.53.87-19.52c0-.59,0-.59.62-.56l14.14.62c.54,0,.54,0,.52.57q-.39,8.72-.77,17.44c0,.42-.13.54-.57.57-1.84.12-3.67.3-5.5.47s-3.64.34-5.45.53c-1.13.12-2.25.27-3.37.4A4.07,4.07,0,0,1,158.42,234.17Z"/><path class="cls-3" d="M173.54,238.43l0,.52q-.41,8.82-.79,17.64c0,.53,0,.53-.57.51L158,256.47c-.54,0-.55,0-.52-.58q.28-6.42.56-12.84a.58.58,0,0,1,.52-.65q7.29-1.92,14.57-3.88Z"/><path class="cls-3" d="M148.64,245.36,148.17,256h-.45l-14.35-.62c-.37,0-.5-.1-.48-.5.09-1.24.13-2.48.17-3.72a.5.5,0,0,1,.37-.51c4.86-2,9.86-3.65,14.88-5.22Z"/><path class="cls-1" d="M182.64,236.65A304.93,304.93,0,0,0,133.09,251l.55-12.44s12-3.85,48.84-6.82Z"/><path class="cls-3" d="M206.28,232.57a5.47,5.47,0,0,1-3.62,1.71c-1.59.19-3.2.29-4.79.47a1.26,1.26,0,0,0-.86.36c-.68,1-1.28,2-2,3.15l1,.06c0,.52.09,1.15.13,1.62a7.25,7.25,0,0,0-2,.3c-.7.24-1.28,1.36-1.55,1.93-.15.33-.42.61-.56,1-.5,1.28-1.44,1.64-2.86,1.38,1-3.07,2.15-6.24,3.13-9.34-.18-.07-2.76.17-2.88.17-2.51.1-2.64.16-5.15.3a1.13,1.13,0,0,0-.84.35,6,6,0,0,0-.66,1.46c-.28.93-.86,1.18-1.86.92a13,13,0,0,0-.72-8.05c.93-.39,1.83-.27,2.21.64.68,1.6.69,1.75,1.89,1.65,1.66-.14,4.67-.45,6.33-.66.35-.05.78-.09,1.26-.18-1.52-3-3.05-6-4.5-8.81,1.23-.59,1.89-.48,2.69.44.31.35.65.69.93,1.06a5,5,0,0,0,2.09,1.7,4.17,4.17,0,0,0,1.86,0l.14,1.7-.8.18a1.2,1.2,0,0,0,.08.27.91.91,0,0,0,.11.16,6.25,6.25,0,0,0,2,2.26,3.73,3.73,0,0,0,1,.39,7.9,7.9,0,0,0,2.59.07c.94-.1,1.73-.21,2.73-.3a4.57,4.57,0,0,1,3.38.93Z"/></svg>