<svg id="Layer_1" data-name="Layer 1" xmlns="http://www.w3.org/2000/svg" viewBox="0 0 759 144"><defs><style>.cls-1{fill:#ffff01;}</style></defs><title>voyHENRY_title</title><path d="M8.7,87V8.84c0-1.75,0-1.75,1.69-1.75H55.47c0,.54.07,1,.07,1.44q0,32.89,0,65.78c0,.89,0,1.42-1.18,1.65C40.13,78.9,26,82.22,12,86.12Z"/><path d="M83.87,70.28V8.89c0-1.8,0-1.8,1.83-1.8H129c1.65,0,1.65,0,1.65,1.66,0,17.8,0,35.59,0,53.38,0,1.31-.35,1.67-1.69,1.82-5.59.62-11.16,1.41-16.74,2.18s-11.06,1.55-16.58,2.37c-3.42.52-6.83,1.14-10.25,1.69A13,13,0,0,1,83.87,70.28Z"/><path d="M130.64,81.26v55.59c0,1.62,0,1.63-1.69,1.63H85.54c-1.67,0-1.67,0-1.67-1.7q0-19.66,0-39.33a1.77,1.77,0,0,1,1.5-2q22-6.87,44-13.84C129.7,81.47,130.07,81.4,130.64,81.26Z"/><path d="M55.5,105.79v32.62c-.47,0-.92.06-1.36.06q-22,0-43.94,0c-1.13,0-1.55-.24-1.53-1.47.08-3.78.05-7.57,0-11.36A1.53,1.53,0,0,1,9.75,124c14.56-6.87,29.62-12.47,44.74-18C54.77,106,55.05,105.92,55.5,105.79Z"/><path class="cls-1" d="M158.2,74.57C78.74,93.48,8.73,125.16,8.73,125.16V87.09S44.89,73.68,157.05,59.62Z"/><path d="M229.9,58.9a16.83,16.83,0,0,1-10.83,5.74c-4.85.77-9.74,1.31-14.59,2.06a4,4,0,0,0-2.57,1.23c-1.94,3.1-3.64,6.35-5.61,9.89l3,0c.2,1.59.43,3.53.61,5a21.15,21.15,0,0,0-6,1.19c-2.1.83-3.71,4.31-4.46,6.11-.42,1-1.22,1.93-1.58,3-1.35,4-4.2,5.2-8.56,4.59,2.53-9.51,5.73-19.34,8.29-29-.56-.17-8.41.89-8.76.92-7.65.64-8.06.83-15.7,1.61-.76.08-2.12.43-2.54,1.19A19.14,19.14,0,0,0,158.77,77c-.71,2.88-2.46,3.73-5.57,3.06a39.66,39.66,0,0,0-3.28-24.5c2.79-1.32,5.55-1.06,6.85,1.66,2.28,4.79,2.33,5.28,6,4.8,5.05-.65,14.21-2,19.25-2.89,1.08-.19,2.38-.37,3.84-.7-5-8.86-10.12-17.83-15-26.33,3.69-2,5.72-1.71,8.31,1,1,1,2.06,2,3,3.11,1.59,2,4.6,4.52,6.61,4.91s2.41.18,5.67-.38l.67,5.19-2.41.65a5.59,5.59,0,0,0,.26.82c.08.18.27.31.38.48,2.11,3.06,3.89,5.32,6.42,6.63a10.92,10.92,0,0,0,3.15,1.06,24.65,24.65,0,0,0,7.94-.15c2.84-.42,5.26-.88,8.31-1.28a13.94,13.94,0,0,1,10.43,2.38Z"/><path d="M488.83,35.82v69.93H468.36v-28H454v28H433.5V35.82H454V62h14.39V35.82Z"/><path d="M539.5,77.78H527V90H548.6v15.74H502.9V35.82h45.7V51.55H527V62H539.5Z"/><path d="M583.71,35.82,597.17,62.3V36L618,35.82v69.93h-21l-14.13-25.5v25.12l-20.14.38V35.82Z"/><path d="M632.06,35.82h28.88c19.24,0,20.46,7.43,20.46,16.61l-.23,11.06c0,10.93-8.38,13.17-8.38,13.17l11,29.09H663.35l-9.63-26.23v26.23H632.06ZM660.94,52c0-1.49-1.2-2.62-3.61-2.62h-3.61V65.1h3.61c2.41,0,3.61-1.13,3.61-2.62Z"/><path d="M732.86,105.75H708.93V79.54c0-4.37-19.47-43.72-19.47-43.72l23,.15,8.22,27.82L729.27,36,752,35.82s-19.14,39.35-19.14,43.72Z"/><path d="M288.38,55.7l11.5,30.6c1.95,4.82,3.49,9,4.83,13.14h.2c1.34-4.11,3.19-8.42,5-13.14l11.7-30.6h5.14l-20,49.28h-4.31L283.14,55.7Z"/><path d="M375.08,79.83c0,18.38-12.63,26.28-23.61,26.28-12.74,0-22.6-10-22.6-25.36,0-16.84,11.1-26.18,23.31-26.18C365.84,54.57,375.08,64.83,375.08,79.83Zm-41.28.61c0,12.32,7.91,21.57,18,21.57,10.27,0,18.38-9.25,18.38-21.88,0-9-5-21.46-18.07-21.46C339.45,58.67,333.8,69.87,333.8,80.44Z"/><path d="M382.51,55.7l12.94,32.24c1.33,3.49,2.67,7.49,3.59,10.58h.21c1-3,2.26-6.89,3.8-10.89l12-31.93h5.24L405.51,92.46c-5.95,15.3-10.16,24.43-16.63,30.08a28.19,28.19,0,0,1-8.62,5.14l-1.55-4.11a25.78,25.78,0,0,0,8.63-5.44,39.15,39.15,0,0,0,8.21-12.43,6.39,6.39,0,0,0,.62-2.15,7.17,7.17,0,0,0-.62-2.16L377.28,55.7Z"/></svg>